<svg width="21" height="21" viewBox="0 0 21 21" fill="none" xmlns="http://www.w3.org/2000/svg">
<path d="M3.76262 2.64265C4.03281 2.4479 4.39302 2.43275 4.67862 2.60411L17.1786 10.1041C17.4296 10.2547 17.5832 10.526 17.5832 10.8187C17.5832 11.1114 17.4296 11.3827 17.1786 11.5333L4.67862 19.0333C4.39302 19.2046 4.03281 19.1895 3.76262 18.9947C3.49242 18.8 3.36413 18.463 3.43638 18.1379L4.87769 11.652L9.24984 11.652C9.71007 11.652 10.0832 11.2789 10.0832 10.8187C10.0832 10.3584 9.71007 9.98535 9.24984 9.98535L4.87769 9.98535L3.43638 3.49946C3.36413 3.17433 3.49242 2.8374 3.76262 2.64265Z" fill="white"/>
</svg>
