<svg width="20" height="20" viewBox="0 0 20 20" fill="none" xmlns="http://www.w3.org/2000/svg">
<path d="M9.40628 10.6641C9.46924 10.617 9.51989 10.5554 9.55389 10.4846C9.5879 10.4137 9.60427 10.3356 9.60159 10.2571V10.0336C10.0922 9.9555 10.4703 9.76917 10.7289 9.48363C11.0305 9.1516 11.1977 8.78324 11.2239 8.39535C11.2424 8.18177 11.2308 7.96665 11.1895 7.75628C11.1467 7.51591 11.056 7.28661 10.9227 7.08206C10.7695 6.86101 10.5714 6.67468 10.3414 6.53519C10.1133 6.39483 9.86319 6.29369 9.60159 6.23597V4.04847C9.61917 4.05863 9.63675 4.06917 9.65316 4.0805C9.77184 4.16023 9.87841 4.25667 9.96956 4.36683C10.0466 4.4605 10.106 4.56746 10.1446 4.68246C10.1846 4.80599 10.2108 4.9336 10.2227 5.06292C10.2532 5.33636 10.4543 5.50355 10.7172 5.4805C10.9367 5.45394 11.0985 5.29222 11.15 5.04808C11.155 5.02445 11.1572 5.00034 11.1567 4.97621C11.1426 4.41527 10.9614 3.95746 10.6137 3.61683C10.3348 3.34209 9.98351 3.15241 9.60081 3.06996V2.77777C9.60141 2.70129 9.58497 2.62564 9.55267 2.55631C9.52037 2.48699 9.47303 2.42573 9.41409 2.37699C9.20863 2.21566 8.95238 2.20003 8.71761 2.39847C8.66677 2.44747 8.62664 2.50647 8.59975 2.57175C8.57285 2.63703 8.55978 2.70718 8.56136 2.77777V3.01761C8.33899 3.04433 8.12047 3.09676 7.91019 3.17386C7.63312 3.2741 7.37968 3.43034 7.16566 3.63285C6.96404 3.82528 6.80594 4.05863 6.70199 4.31722C6.59701 4.58627 6.55687 4.87626 6.5848 5.16371C6.64652 5.69574 6.87269 6.13519 7.26175 6.47347C7.60003 6.75589 8.03753 6.93714 8.5637 7.01371V9.12894C8.21448 9.08285 7.9387 8.98441 7.74339 8.83558C7.49417 8.64691 7.34105 8.4223 7.28206 8.18011C7.25159 7.94144 7.06214 7.78246 6.81331 7.77542C6.74356 7.76853 6.67315 7.77808 6.60776 7.80332C6.54236 7.82856 6.48379 7.86877 6.43675 7.92074C6.39507 7.97164 6.36621 8.03181 6.35262 8.09618C6.33902 8.16055 6.34108 8.22725 6.35863 8.29066C6.46448 8.86058 6.75902 9.30316 7.23441 9.60706C7.61292 9.84496 8.06058 9.99261 8.56761 10.0461V10.2543C8.56451 10.3298 8.57858 10.405 8.60876 10.4742C8.63893 10.5434 8.68444 10.6049 8.74183 10.6539C8.83615 10.7319 8.95459 10.7749 9.07698 10.7754C9.19582 10.7744 9.3112 10.7354 9.40628 10.6641ZM7.62425 5.42269C7.58797 5.32031 7.5641 5.21396 7.55316 5.10589C7.54271 4.95522 7.56463 4.80407 7.61746 4.66257C7.67028 4.52108 7.75278 4.39254 7.85941 4.28558C8.02777 4.11058 8.2637 3.99456 8.56253 3.93831V6.06956C8.27651 6.00744 8.01222 5.87017 7.79691 5.67191C7.72167 5.60259 7.66271 5.51748 7.62425 5.42269ZM10.2981 8.36488C10.293 8.42981 10.2784 8.49365 10.2547 8.55433C10.2259 8.64118 10.1821 8.72235 10.1254 8.79417C10.041 8.8894 9.93897 8.96751 9.82503 9.02425C9.75443 9.06149 9.67915 9.08908 9.6012 9.10628V7.19769C9.80667 7.2723 9.9637 7.37113 10.07 7.49222C10.2325 7.6805 10.3067 7.96371 10.2981 8.35824V8.36488Z" fill="#1F1F2C"/>
<path d="M16.2404 18.2058H9.42478V16.5695C13.0345 18.0539 14.8388 16.2539 15.5744 14.8242C16.6439 12.7457 17.3588 11.9531 17.3588 11.9531C11.9365 11.3281 10.0658 13.6589 9.42478 15.1921V12.4968C12.4154 12.2878 14.7861 9.79409 14.7861 6.75112C14.7861 3.57144 12.1994 0.985107 9.0197 0.985107C5.84001 0.985107 3.2529 3.57144 3.2529 6.75112C3.2529 9.79409 5.62439 12.2878 8.61501 12.4968V14.8339C7.99626 13.9101 6.52986 12.6273 3.31189 13.3886C3.31189 13.3886 4.58767 14.9437 5.11892 15.6519C5.81384 16.5777 7.19236 17.1152 8.61501 16.3726V18.2066H3.04665C2.99248 18.2049 2.93851 18.2141 2.88797 18.2337C2.83742 18.2533 2.79132 18.2828 2.7524 18.3205C2.71349 18.3582 2.68254 18.4034 2.66141 18.4533C2.64028 18.5032 2.62939 18.5569 2.62939 18.6111C2.62939 18.6653 2.64028 18.7189 2.66141 18.7689C2.68254 18.8188 2.71349 18.8639 2.7524 18.9017C2.79132 18.9394 2.83742 18.9689 2.88797 18.9885C2.93851 19.008 2.99248 19.0173 3.04665 19.0156H16.2404C16.2946 19.0173 16.3485 19.008 16.3991 18.9885C16.4496 18.9689 16.4957 18.9394 16.5347 18.9017C16.5736 18.8639 16.6045 18.8188 16.6256 18.7689C16.6468 18.7189 16.6577 18.6653 16.6577 18.6111C16.6577 18.5569 16.6468 18.5032 16.6256 18.4533C16.6045 18.4034 16.5736 18.3582 16.5347 18.3205C16.4957 18.2828 16.4496 18.2533 16.3991 18.2337C16.3485 18.2141 16.2946 18.2049 16.2404 18.2066V18.2058ZM4.06228 6.75112C4.06228 5.77071 4.353 4.81232 4.89769 3.99714C5.44237 3.18196 6.21656 2.54661 7.12234 2.17142C8.02812 1.79624 9.02481 1.69807 9.98638 1.88934C10.9479 2.08061 11.8312 2.55272 12.5245 3.24597C13.2177 3.93923 13.6898 4.82248 13.8811 5.78405C14.0724 6.74562 13.9742 7.74232 13.599 8.6481C13.2238 9.55388 12.5885 10.3281 11.7733 10.8727C10.9581 11.4174 9.99972 11.7082 9.01931 11.7082C7.70494 11.7071 6.4447 11.1845 5.5153 10.2551C4.5859 9.32573 4.06331 8.06549 4.06228 6.75112Z" fill="#1F1F2C"/>
</svg>
