<svg width="16" height="21" viewBox="0 0 16 21" fill="none" xmlns="http://www.w3.org/2000/svg">
<path d="M7.71429 20.2888C9.25 20.2888 15.4286 13.896 15.4286 8.11025C15.4286 3.78882 11.9643 0.288818 7.71429 0.288818C3.46429 0.288818 0 3.78882 0 8.11025C0 13.896 6.17857 20.2888 7.71429 20.2888ZM3.5 7.43168C3.5 6.86025 3.60714 6.28882 3.82143 5.78882C3.96429 5.46739 4.39286 5.43168 4.57143 5.71739C4.85714 6.18168 5.39286 6.5031 6 6.5031C6.92857 6.5031 7.71429 5.71739 7.71429 4.78882C7.71429 4.39596 7.60714 4.07453 7.39286 3.78882C7.17857 3.53882 7.35714 3.14596 7.71429 3.14596C10.0357 3.14596 11.9286 5.07453 11.9286 7.43168C11.9286 9.78882 10.0357 11.7174 7.71429 11.7174C5.39286 11.7174 3.5 9.78882 3.5 7.43168Z" fill="white"/>
</svg>
