<svg width="65" stroke-width="0" height="64" viewBox="0 0 65 64" fill="none" xmlns="http://www.w3.org/2000/svg" stroke="none">
<path  stroke-width="2" className="hover:text-green-600" d="M31.769 61.5385H4.00634C7.23625 57.4385 8.98556 52.3672 8.97028 47.1478V2.46154H51.8002V26.0264C51.8002 26.3529 51.9299 26.6659 52.1607 26.8967C52.3915 27.1275 52.7045 27.2572 53.031 27.2572C53.3574 27.2572 53.6704 27.1275 53.9013 26.8967C54.1321 26.6659 54.2617 26.3529 54.2617 26.0264V1.23077C54.2618 1.06913 54.23 0.909067 54.1681 0.759724C54.1063 0.610381 54.0156 0.474685 53.9013 0.360389C53.787 0.246093 53.6514 0.155437 53.502 0.0936004C53.3527 0.0317635 53.1926 -4.24045e-05 53.031 4.24299e-08H7.73951C7.57787 -4.24045e-05 7.41781 0.0317635 7.26846 0.0936004C7.11912 0.155437 6.98342 0.246093 6.86913 0.360389C6.75483 0.474685 6.66418 0.610381 6.60234 0.759724C6.5405 0.909067 6.5087 1.06913 6.50874 1.23077V47.1478C6.51631 49.8884 5.98025 52.6033 4.93157 55.1354C3.8829 57.6674 2.34244 59.9663 0.399354 61.8991C0.227215 62.0712 0.109981 62.2904 0.0624794 62.5292C0.0149773 62.7679 0.0393409 63.0154 0.132489 63.2403C0.225637 63.4652 0.383385 63.6574 0.585783 63.7926C0.788181 63.9278 1.02614 64 1.26955 64H31.769C32.0954 64 32.4084 63.8703 32.6392 63.6395C32.8701 63.4087 32.9997 63.0957 32.9997 62.7692C32.9997 62.4428 32.8701 62.1298 32.6392 61.8989C32.4084 61.6681 32.0954 61.5385 31.769 61.5385Z" fill="#0D0D11"/>
<path  stroke-width="2" className="hover:text-green-600" d="M44.5022 15.5024H16.2684C15.9419 15.5024 15.6289 15.6321 15.3981 15.8629C15.1673 16.0937 15.0376 16.4067 15.0376 16.7331C15.0376 17.0596 15.1673 17.3726 15.3981 17.6034C15.6289 17.8342 15.9419 17.9639 16.2684 17.9639H44.5022C44.8286 17.9639 45.1417 17.8342 45.3725 17.6034C45.6033 17.3726 45.733 17.0596 45.733 16.7331C45.733 16.4067 45.6033 16.0937 45.3725 15.8629C45.1417 15.6321 44.8286 15.5024 44.5022 15.5024Z" fill="#0D0D11"/>
<path  stroke-width="2" className="hover:text-green-600" d="M45.733 25.0721C45.733 24.9105 45.7012 24.7504 45.6394 24.6011C45.5775 24.4518 45.4869 24.3161 45.3726 24.2018C45.2583 24.0875 45.1226 23.9968 44.9733 23.935C44.8239 23.8731 44.6638 23.8413 44.5022 23.8414H16.2684C15.9419 23.8414 15.6289 23.971 15.3981 24.2019C15.1673 24.4327 15.0376 24.7457 15.0376 25.0721C15.0376 25.3986 15.1673 25.7116 15.3981 25.9424C15.6289 26.1732 15.9419 26.3029 16.2684 26.3029H44.5022C44.6638 26.303 44.8239 26.2711 44.9733 26.2093C45.1226 26.1475 45.2583 26.0568 45.3726 25.9425C45.4869 25.8282 45.5775 25.6925 45.6394 25.5432C45.7012 25.3938 45.733 25.2338 45.733 25.0721Z" fill="#0D0D11"/>
<path  stroke-width="2" className="hover:text-green-600" d="M33.4613 33.4111C33.4613 33.2494 33.4295 33.0894 33.3677 32.94C33.3058 32.7907 33.2152 32.655 33.1009 32.5407C32.9866 32.4264 32.8509 32.3357 32.7016 32.2739C32.5522 32.2121 32.3921 32.1803 32.2305 32.1803H16.2684C15.9419 32.1803 15.6289 32.31 15.3981 32.5408C15.1673 32.7716 15.0376 33.0846 15.0376 33.4111C15.0376 33.7375 15.1673 34.0505 15.3981 34.2814C15.6289 34.5122 15.9419 34.6418 16.2684 34.6418H32.2305C32.3921 34.6419 32.5522 34.6101 32.7016 34.5482C32.8509 34.4864 32.9866 34.3957 33.1009 34.2814C33.2152 34.1672 33.3058 34.0315 33.3677 33.8821C33.4295 33.7328 33.4613 33.5727 33.4613 33.4111Z" fill="#0D0D11"/>
<path  stroke-width="2" className="hover:text-green-600" d="M16.2684 40.5192C15.9419 40.5192 15.6289 40.6489 15.3981 40.8797C15.1673 41.1105 15.0376 41.4236 15.0376 41.75C15.0376 42.0764 15.1673 42.3895 15.3981 42.6203C15.6289 42.8511 15.9419 42.9808 16.2684 42.9808H26.3074C26.6338 42.9808 26.9469 42.8511 27.1777 42.6203C27.4085 42.3895 27.5382 42.0764 27.5382 41.75C27.5382 41.4236 27.4085 41.1105 27.1777 40.8797C26.9469 40.6489 26.6338 40.5192 26.3074 40.5192H16.2684Z" fill="#0D0D11"/>
<path  stroke-width="2" className="hover:text-green-600" d="M60.3068 36.8401C58.2482 34.7779 55.6623 33.3212 52.8318 32.6292C50.0013 31.9372 47.035 32.0366 44.2572 32.9165C41.4793 33.7964 38.9968 35.423 37.0809 37.6184C35.1649 39.8138 33.8894 42.4937 33.3935 45.365L32.4155 44.387C32.1847 44.1562 31.8717 44.0265 31.5453 44.0265C31.2189 44.0265 30.9059 44.1562 30.6751 44.387C30.4444 44.6178 30.3147 44.9308 30.3147 45.2572C30.3147 45.5836 30.4444 45.8966 30.6751 46.1274L33.5073 48.9594C33.7387 49.1897 34.0518 49.319 34.3783 49.319C34.7048 49.319 35.0179 49.1897 35.2493 48.9594L38.082 46.1274C38.3128 45.8966 38.4425 45.5836 38.4425 45.2572C38.4425 44.9308 38.3128 44.6178 38.082 44.387C37.8512 44.1562 37.5382 44.0265 37.2118 44.0265C36.8854 44.0265 36.5724 44.1562 36.3416 44.387L36.0621 44.6664C36.8189 41.8049 38.4994 39.2733 40.8426 37.4649C43.1858 35.6564 46.0606 34.6723 49.0205 34.6653C51.9804 34.6583 54.8598 35.6289 57.2115 37.4263C59.5631 39.2237 61.2555 41.7474 62.0258 44.6053C62.796 47.4633 62.601 50.4956 61.4711 53.2313C60.3411 55.9671 58.3394 58.2531 55.7769 59.7345C53.2144 61.2159 50.2344 61.8097 47.2997 61.4237C44.3651 61.0377 41.64 59.6934 39.5478 57.5997C39.317 57.3689 39.004 57.2393 38.6776 57.2393C38.3512 57.2393 38.0382 57.3689 37.8074 57.5997C37.5766 57.8305 37.4469 58.1435 37.4469 58.4699C37.4469 58.7963 37.5766 59.1093 37.8074 59.3401C40.7916 62.3213 44.8375 63.9954 49.0557 63.9944C53.2739 63.9933 57.319 62.3171 60.3017 59.3344C63.2843 56.3516 64.9604 52.3065 64.9613 48.0883C64.9623 43.8701 63.2881 39.8242 60.3068 36.8401Z" fill="#0D0D11"/>
<path  stroke-width="2" className="hover:text-green-600" d="M49.0574 37.4338C48.8958 37.4338 48.7357 37.4656 48.5864 37.5274C48.437 37.5893 48.3013 37.6799 48.187 37.7942C48.0728 37.9085 47.9821 38.0442 47.9203 38.1936C47.8584 38.3429 47.8266 38.503 47.8267 38.6646V48.0901C47.8286 48.4167 47.9584 48.7295 48.1883 48.9615L52.6488 53.4218C52.8801 53.6502 53.1923 53.7777 53.5173 53.7767C53.8423 53.7756 54.1537 53.6461 54.3835 53.4163C54.6133 53.1865 54.7429 52.8751 54.744 52.5501C54.745 52.2251 54.6175 51.9128 54.3892 51.6815L50.2882 47.5806V38.6646C50.2882 38.503 50.2564 38.3429 50.1946 38.1936C50.1328 38.0442 50.0421 37.9085 49.9278 37.7942C49.8135 37.6799 49.6778 37.5893 49.5285 37.5274C49.3791 37.4656 49.2191 37.4338 49.0574 37.4338Z" fill="#0D0D11"/>
</svg>
