<svg width="16" height="21" viewBox="0 0 16 21" fill="none" xmlns="http://www.w3.org/2000/svg">
<path d="M8.143 20.2888C9.67871 20.2888 15.8573 13.896 15.8573 8.11025C15.8573 3.78882 12.393 0.288818 8.143 0.288818C3.893 0.288818 0.428711 3.78882 0.428711 8.11025C0.428711 13.896 6.60728 20.2888 8.143 20.2888ZM3.92871 7.43168C3.92871 6.86025 4.03585 6.28882 4.25014 5.78882C4.393 5.46739 4.82157 5.43168 5.00014 5.71739C5.28585 6.18168 5.82157 6.5031 6.42871 6.5031C7.35728 6.5031 8.143 5.71739 8.143 4.78882C8.143 4.39596 8.03585 4.07453 7.82157 3.78882C7.60728 3.53882 7.78585 3.14596 8.143 3.14596C10.4644 3.14596 12.3573 5.07453 12.3573 7.43168C12.3573 9.78882 10.4644 11.7174 8.143 11.7174C5.82157 11.7174 3.92871 9.78882 3.92871 7.43168Z" fill="#CA0000"/>
</svg>
