<svg width="106" height="25" viewBox="0 0 106 25" fill="none" xmlns="http://www.w3.org/2000/svg">
<g clip-path="url(#clip0_1770_3217)">
<path opacity="0.5" d="M15 12.4337C15.0002 12.7755 14.9798 13.1169 14.9391 13.4559C14.9391 13.4628 14.9376 13.4697 14.9367 13.4766C14.9055 13.7347 14.8626 13.9887 14.8081 14.2387C14.5579 15.3876 14.073 16.4633 13.3881 17.3892C12.7033 18.3152 11.8352 19.0684 10.846 19.5953C10.3005 19.8863 9.72335 20.1043 9.12773 20.2444L9.10547 20.2497C8.57807 20.3724 8.0398 20.4341 7.5 20.4337C3.35801 20.4337 0 16.8519 0 12.4337C0 8.01562 3.35801 4.43375 7.5 4.43375C11.642 4.43375 15 8.01562 15 12.4337Z" fill="#343444"/>
<path d="M14.9391 13.4559C14.9391 13.4628 14.9376 13.4697 14.9367 13.4766C14.9055 13.7347 14.8626 13.9887 14.8081 14.2387C14.5579 15.3876 14.073 16.4633 13.3881 17.3892C12.7033 18.3152 11.8352 19.0684 10.846 19.5953C10.3005 19.8863 9.72335 20.1043 9.12773 20.2444L5.00977 16.84L5.24414 15.6212C6.62109 11.3956 6.73828 7.91218 8.55469 8.59L9.99023 8.05875L14.9391 13.4559Z" fill="#343444"/>
<path d="M7.01367 9.65875V11.5463H9.63867V13.1713H7.01367V15.2088H9.99023V16.8338H5.00977V8.03375H9.99023V9.65875H7.01367Z" fill="white"/>
</g>
<rect x="31" y="10.2065" width="9.33343" height="9.22724" fill="#343444"/>
<rect x="35.6665" y="5.43375" width="9.33343" height="9.22724" fill="#343444"/>
<rect x="35.6665" y="10.2065" width="4.66672" height="4.45453" fill="white"/>
<path fill-rule="evenodd" clip-rule="evenodd" d="M64.2073 6.28295C63.6708 6.65808 63.1856 7.10161 62.7645 7.6009C64.4855 7.44112 66.6719 7.70201 69.2104 8.97125C71.9211 10.3266 74.1039 10.3724 75.623 10.0794C75.4852 9.66204 75.3117 9.26094 75.1061 8.87964C73.3671 9.06305 71.1377 8.82028 68.5396 7.52124C66.8897 6.69631 65.4354 6.3565 64.2073 6.28295ZM74.0903 7.43374C72.717 5.89937 70.7213 4.93375 68.5 4.93375C67.8477 4.93375 67.2148 5.01704 66.6114 5.17355C67.4286 5.39653 68.2967 5.72274 69.2104 6.1796C71.1126 7.13069 72.7549 7.43693 74.0903 7.43374ZM75.9478 11.5443C74.1126 11.9067 71.5783 11.8322 68.5396 10.3129C65.6987 8.89246 63.4377 8.91035 61.9127 9.24924C61.834 9.26672 61.7571 9.28509 61.6821 9.30421C61.4825 9.73843 61.3231 10.195 61.2088 10.6692C61.3309 10.6366 61.4571 10.6055 61.5873 10.5766C63.4373 10.1655 66.0513 10.1833 69.2104 11.7629C72.0513 13.1833 74.3123 13.1654 75.8373 12.8266C75.8896 12.815 75.9411 12.803 75.9917 12.7906C75.9972 12.6724 76 12.5534 76 12.4337C76 12.1328 75.9823 11.836 75.9478 11.5443ZM75.7468 14.3734C73.9294 14.6911 71.4689 14.5691 68.5396 13.1045C65.6987 11.6841 63.4377 11.702 61.9127 12.0409C61.5742 12.1161 61.2697 12.2077 61.0011 12.3044C61.0004 12.3474 61 12.3905 61 12.4337C61 16.5759 64.3579 19.9337 68.5 19.9337C71.9714 19.9337 74.892 17.5753 75.7468 14.3734Z" fill="#343444"/>
<path d="M94.4258 15.8265L96.2612 14.7242L95.586 11.0669L94.4258 15.8265Z" fill="#343444"/>
<path d="M99.0073 18.5609L100.843 17.458L100.168 13.8019L99.0073 18.5609Z" fill="#343444"/>
<path d="M103.605 7.67534L101.313 6.30784L99.4785 7.41012L99.0228 4.94035L96.7317 3.57347L94.4556 4.94035L96.7466 6.30784L97.8775 12.4344L99.0371 7.67472L101.329 9.04283L103.589 21.2953L105.865 19.9284L103.605 7.67534Z" fill="#343444"/>
<path d="M99.0373 7.67471L97.8777 12.4344L96.7468 6.30783L94.4557 4.94034L92.1348 14.459L94.4258 15.8265L95.586 11.0669L96.7169 17.1934L99.0074 18.5609L100.168 13.8019L101.299 19.9284L103.59 21.2953L101.329 9.04282L99.0373 7.67471Z" fill="white"/>
<path d="M103.657 21.4158L105.933 20.0483C105.983 20.0186 106.008 19.9599 105.998 19.9018L103.736 7.64875C103.729 7.60918 103.705 7.57456 103.671 7.55416L101.38 6.18667C101.338 6.16194 101.286 6.16194 101.244 6.18667L99.5735 7.19065L99.1531 4.91376C99.1459 4.87419 99.122 4.83957 99.0879 4.81917L96.7974 3.45229C96.7555 3.42756 96.7041 3.42756 96.6623 3.45229L94.3861 4.81979C94.3843 4.82102 94.3831 4.82288 94.3813 4.82412C94.3754 4.82782 94.3706 4.83215 94.3652 4.8371C94.3622 4.84019 94.3586 4.84266 94.3556 4.84637C94.3508 4.85194 94.3467 4.8575 94.3431 4.86368C94.3407 4.86739 94.3383 4.87048 94.3365 4.87419C94.3329 4.88161 94.3299 4.88903 94.3275 4.89707C94.3263 4.90016 94.3251 4.90263 94.3245 4.90572C94.3245 4.90634 94.3239 4.90634 94.3239 4.90696L92.0042 14.425C91.9892 14.4856 92.0155 14.5487 92.0676 14.5796L94.3592 15.9471C94.3658 15.9508 94.373 15.9539 94.3802 15.9563C94.3819 15.957 94.3837 15.9582 94.3861 15.9588C94.3987 15.9631 94.4112 15.965 94.4238 15.965C94.425 15.965 94.4256 15.9656 94.4268 15.9656C94.4298 15.9656 94.4322 15.9644 94.4352 15.9644C94.4423 15.9638 94.4495 15.9631 94.4561 15.9613C94.4603 15.9601 94.4645 15.9588 94.4687 15.9576C94.4722 15.9563 94.4758 15.9557 94.4794 15.9545C94.4824 15.9533 94.4848 15.9514 94.4878 15.9495C94.4902 15.9483 94.4926 15.9477 94.4944 15.9465L96.1653 14.9425L96.5857 17.2194C96.5929 17.2589 96.6168 17.2935 96.6509 17.3139L98.9414 18.6808C98.9479 18.6845 98.9551 18.6876 98.9617 18.6901C98.9635 18.6907 98.9653 18.692 98.9677 18.6926C98.9802 18.6969 98.9928 18.6988 99.0054 18.6988C99.0065 18.6988 99.0071 18.6994 99.0083 18.6994C99.0113 18.6994 99.0137 18.6988 99.0167 18.6981C99.0239 18.6975 99.0311 18.6969 99.0376 18.695L99.0502 18.6913C99.0538 18.6901 99.0574 18.6895 99.061 18.6882C99.064 18.687 99.0664 18.6852 99.0693 18.6833C99.0717 18.6821 99.0741 18.6814 99.0759 18.6802L100.747 17.6762L101.168 19.9537C101.175 19.9933 101.199 20.0279 101.233 20.0483L103.524 21.4152C103.525 21.4164 103.527 21.4164 103.529 21.4177C103.531 21.4189 103.532 21.4201 103.535 21.4214C103.54 21.4239 103.544 21.4245 103.549 21.4263C103.552 21.4276 103.556 21.4288 103.559 21.4294C103.569 21.4319 103.58 21.4337 103.59 21.4337C103.603 21.4337 103.616 21.4313 103.628 21.4276C103.632 21.4263 103.636 21.4245 103.64 21.4226C103.645 21.4214 103.651 21.4195 103.657 21.4158ZM96.7322 3.7342L98.9019 5.02936L99.3462 7.43608C99.3546 7.48059 99.3827 7.51769 99.4228 7.53685C99.4628 7.5554 99.5083 7.55354 99.546 7.53067L101.314 6.46857L103.484 7.76374L105.715 19.8573L103.686 21.0764L101.46 9.01624C101.453 8.97668 101.429 8.94206 101.395 8.92166L99.1034 7.55416C99.0939 7.5486 99.0831 7.54427 99.0723 7.54118C99.0687 7.53994 99.0652 7.53994 99.0622 7.53932C99.055 7.53809 99.0472 7.53623 99.04 7.53623C99.0388 7.53623 99.0376 7.53561 99.0364 7.53561C99.0317 7.53561 99.0269 7.53685 99.0215 7.53685C99.0185 7.53747 99.0149 7.53747 99.0119 7.53809C99.0024 7.53994 98.9928 7.54242 98.9838 7.54674C98.945 7.56343 98.9162 7.59867 98.9055 7.64071L97.8942 11.7902L96.8775 6.28125C96.8704 6.24169 96.8464 6.20707 96.8124 6.18667L94.7228 4.93972L96.7322 3.7342ZM94.6343 15.5403L95.5678 11.7111L96.1109 14.6538L94.6343 15.5403ZM99.2159 18.2747L100.15 14.4454L100.693 17.3875L99.2159 18.2747ZM100.975 17.432L100.3 13.7753C100.288 13.711 100.235 13.664 100.172 13.6621C100.109 13.6603 100.053 13.7042 100.038 13.7672L98.9204 18.3476L96.8375 17.1044L96.3931 14.6977L95.718 11.0403C95.706 10.976 95.6528 10.929 95.5894 10.9272C95.5738 10.9272 95.5589 10.9296 95.5445 10.9346C95.5021 10.9494 95.4662 10.9853 95.4548 11.0322L94.3383 15.6132L92.2894 14.3904L94.5422 5.15239L96.6252 6.39562L97.7441 12.4597C97.7561 12.524 97.8093 12.571 97.8727 12.5728C97.9361 12.5766 97.9917 12.5308 98.0072 12.4677L99.1238 7.88676L101.207 9.13061L103.402 21.0226L101.418 19.8394L100.975 17.432Z" fill="#343444"/>
<defs>
<clipPath id="clip0_1770_3217">
<rect width="15" height="16" fill="white" transform="translate(0 4.43375)"/>
</clipPath>
</defs>
</svg>
