<svg width="17" height="16" viewBox="0 0 17 16" fill="none" xmlns="http://www.w3.org/2000/svg">
<path d="M16.5418 12.6999V13.1249C16.5418 13.7416 16.3335 14.3333 15.9501 14.8083C15.8085 14.9916 15.5752 15.0833 15.3335 15.0833H13.1002C13.4418 14.4917 13.6252 13.8166 13.6252 13.1249V12.6999C13.6252 11.4999 13.1835 10.3917 12.4335 9.55008C12.4918 9.53341 12.5418 9.50001 12.5918 9.47501C12.9752 9.25834 13.4502 9.19171 13.9002 9.30004C15.4502 9.69171 16.5418 11.0832 16.5418 12.6999ZM10.7085 0.916656C10.4418 0.916656 10.1835 0.941738 9.9335 1.00007C10.9252 1.9084 11.5418 3.21666 11.5418 4.66666C11.5418 6.11666 10.9252 7.42491 9.9335 8.33324C10.1835 8.39158 10.4418 8.41666 10.7085 8.41666C12.7752 8.41666 14.4585 6.73332 14.4585 4.66666C14.4585 2.59999 12.7752 0.916656 10.7085 0.916656ZM6.54183 0.916656C4.47516 0.916656 2.79183 2.59999 2.79183 4.66666C2.79183 6.73332 4.47516 8.41666 6.54183 8.41666C8.6085 8.41666 10.2918 6.73332 10.2918 4.66666C10.2918 2.59999 8.6085 0.916656 6.54183 0.916656ZM9.73351 9.30004C9.58351 9.26671 9.44182 9.24999 9.29182 9.24999C8.98349 9.24999 8.68351 9.32501 8.42517 9.47501C7.84184 9.79167 7.19183 9.95006 6.54183 9.95006C5.89183 9.95006 5.25017 9.79168 4.67517 9.48335C4.40017 9.33335 4.09183 9.24999 3.7835 9.24999C3.65016 9.24999 3.52515 9.2667 3.40015 9.2917C1.81681 9.65837 0.708496 11.0666 0.708496 12.6999V13.1249C0.708496 13.7416 0.916848 14.3333 1.30018 14.8083C1.44185 14.9916 1.67517 15.0833 1.91684 15.0833H11.1668C11.4085 15.0833 11.6418 14.9916 11.7835 14.8083C12.1668 14.3333 12.3752 13.7416 12.3752 13.1249V12.6999C12.3752 11.0832 11.2835 9.69171 9.73351 9.30004Z" fill="#7A798A"/>
</svg>
